<svg xmlns="http://www.w3.org/2000/svg" width="437.083" height="470" viewBox="0 0 437.083 470">
  <g id="Group_5" data-name="Group 5" transform="translate(-200.106 -14.772)">
    <path id="Subtraction_1" data-name="Subtraction 1" d="M49.529,199.4a.734.734,0,0,1-.6-.335A53.04,53.04,0,0,0,41,190.2a41.819,41.819,0,0,0-9.655-6.141,29.977,29.977,0,0,0-3.562-1.3c-3.58-1.15-8.037-2.582-12.385-6.522a31.155,31.155,0,0,1-6.233-8.04,55.4,55.4,0,0,1-5.043-13.378c-.2-.788-1.721-10.306-.8-11.763a55.375,55.375,0,0,0,8.129-19.939c.374-1.806.58-2.8,1.106-2.8a.454.454,0,0,1,.054,0,16.25,16.25,0,0,0,1.9.112,20.687,20.687,0,0,0,11.674-3.991,27.624,27.624,0,0,0,4.671-3.991,51.274,51.274,0,0,1,18.009,14.408,50.881,50.881,0,0,1,8.9,18.233c3.94,14.73,1.655,29.231-.057,36.565C55.265,192.115,51.438,199.4,49.529,199.4ZM0,141.1V112.4a28.048,28.048,0,0,0,8.835,6.88A51.165,51.165,0,0,1,0,141.092Zm68.369-13.843c-1.595,0-3.271-.062-4.982-.184-.809-.057-10.325-1.559-11.431-2.9a55.336,55.336,0,0,0-16.424-13.926c-1.689-.967-2.536-1.453-2.3-1.971,1.24-2.676,2.372-7.175.728-13.413a27.81,27.81,0,0,0-2.533-6.375C41.52,78.193,53.723,72.975,67.7,72.975A65.176,65.176,0,0,1,87.083,76.1a83.819,83.819,0,0,1,16.5,7.227,71.834,71.834,0,0,1,11.609,8.125c2.791,2.467,4.506,4.587,4.705,5.818a.772.772,0,0,1-.529.972,53.008,53.008,0,0,0-10.893,4.78,41.857,41.857,0,0,0-8.839,7.267,30,30,0,0,0-2.338,2.981,32.223,32.223,0,0,1-8.91,9.055C83.209,125.64,76.661,127.253,68.369,127.253ZM14.95,116.294A16.249,16.249,0,0,1,0,106.436v-12.8a16.261,16.261,0,1,1,14.95,22.66ZM0,87.413V57.335a2.468,2.468,0,0,1,.371.961,55.32,55.32,0,0,0,4.786,21c.771,1.787,1.158,2.683.654,2.954A17.439,17.439,0,0,0,0,87.409ZM28.5,85.62a.393.393,0,0,1-.285-.115c-4.426-4.275-10.4-5.172-14.636-5.172a26.36,26.36,0,0,0-4.653.384,50.1,50.1,0,0,1-5.329-28A56.381,56.381,0,0,1,12.1,29.062C23.125,11.279,41.2,0,45.874,0A1.268,1.268,0,0,1,46.8.282a.76.76,0,0,1,.2.567,53,53,0,0,0,.939,11.858A41.848,41.848,0,0,0,51.9,23.442a30.038,30.038,0,0,0,2.046,3.183c2.154,3.086,4.833,6.923,5.909,12.693a31.162,31.162,0,0,1,.091,10.174,55.4,55.4,0,0,1-4.089,13.7c-.321.746-4.872,9.244-6.486,9.846A55.333,55.333,0,0,0,30.826,83.982C29.652,85,28.944,85.62,28.5,85.62Z" transform="translate(418.648 151.013)" fill="rgba(0,0,0,0)" stroke="#817162" stroke-miterlimit="10" stroke-width="5"/>
    <path id="Path_18" data-name="Path 18" d="M490.63,154.436H332.938a40.5,40.5,0,0,0-35.074,20.251L219.018,311.253a40.5,40.5,0,0,0,0,40.5l78.846,136.566a40.5,40.5,0,0,0,35.074,20.251H490.63A40.5,40.5,0,0,0,525.7,488.318l78.848-136.566a40.5,40.5,0,0,0,0-40.5L525.7,174.687A40.5,40.5,0,0,0,490.63,154.436Z" transform="translate(6.863 -78.694)" fill="none" stroke="#817162" stroke-miterlimit="10" stroke-width="5"/>
    <text id="J" transform="translate(293.829 371.772)" fill="#817162" font-size="379" font-family="Didot"><tspan x="0" y="0">J</tspan></text>
    <path id="Path_19" data-name="Path 19" d="M506.668,144.49H330.628a40.5,40.5,0,0,0-35.076,20.249L207.533,317.2a40.5,40.5,0,0,0,0,40.5l88.019,152.457A40.5,40.5,0,0,0,330.628,530.4h176.04a40.5,40.5,0,0,0,35.075-20.249L629.763,357.7a40.5,40.5,0,0,0,0-40.5L541.743,164.739A40.5,40.5,0,0,0,506.668,144.49Z" transform="translate(0 -84.638)" fill="none" stroke="#817162" stroke-miterlimit="10" stroke-width="4"/>
  </g>
</svg>
