<?xml version="1.0" encoding="UTF-8"?>
<svg id="Layer_2" data-name="Layer 2" xmlns="http://www.w3.org/2000/svg" viewBox="0 0 166.79 77">
  <defs>
    <style>
      .cls-1 {
        fill: none;
        stroke: #fff;
        stroke-linejoin: round;
        stroke-width: 10px;
      }

      .cls-2 {
        fill: #fff;
        stroke: #282727;
        stroke-miterlimit: 10;
        stroke-width: .75px;
      }

      .cls-3 {
        fill: #232323;
      }

      .cls-3, .cls-4 {
        stroke-width: 0px;
      }

      .cls-4 {
        fill: #2b2b2b;
      }
    </style>
  </defs>
  <g>
    <path class="cls-3" d="M37.06,77h0C16.59,77,0,60.41,0,39.94V11.51h74.12v28.43c0,20.47-16.59,37.06-37.06,37.06Z"/>
    <path class="cls-1" d="M52.89,10.61c0,29.86,0,16.09,0,29.5,0,23.75-32.44,26.29-32.44-.71"/>
    <rect class="cls-3" x="47.93" width="10.07" height="11.51"/>
  </g>
  <g>
    <path class="cls-4" d="M96.86,33.35c.32.03.68.03,1,.03.92,0,1.66-.34,1.66-1.76v-14.06h2.9v13.84c0,3.69-1.97,4.63-4.16,4.63-.53,0-.92,0-1.4-.05,0,0,0-2.63,0-2.63Z"/>
    <path class="cls-4" d="M116.57,35.98h-2.92l-.5-3.34h-3.55l-.5,3.34h-2.66l2.95-18.42h4.24l2.95,18.42h0ZM109.96,30.14h2.79l-1.37-9.32h-.05s-1.37,9.32-1.37,9.32Z"/>
    <path class="cls-4" d="M128.76,17.55v2.58l-5.5,13.21h5.5v2.63h-8.48v-2.58l5.5-13.21h-5.24v-2.63h8.22Z"/>
    <path class="cls-4" d="M141.31,17.55v2.58l-5.5,13.21h5.5v2.63h-8.48v-2.58l5.5-13.21h-5.24v-2.63h8.22Z"/>
    <path class="cls-4" d="M148.55,29.87l-3.66-12.32h3.03l2.18,8.4h.05l2.18-8.4h2.76l-3.66,12.32v6.11h-2.9v-6.11h.02Z"/>
    <path class="cls-2" d="M97.65,49.14h4.58c2.9,0,4.32,1.61,4.32,4.55v9.32c0,2.95-1.42,4.55-4.32,4.55h-4.58v-18.42ZM100.54,51.77v13.16h1.63c.92,0,1.47-.47,1.47-1.79v-9.58c0-1.32-.55-1.79-1.47-1.79,0,0-1.63,0-1.63,0Z"/>
    <path class="cls-2" d="M114.1,56.9h3.97v2.63h-3.97v5.4h5v2.63h-7.9v-18.42h7.9v2.63h-5v5.13Z"/>
    <path class="cls-2" d="M127.6,48.93c2.82,0,4.26,1.68,4.26,4.63v.58h-2.74v-.76c0-1.32-.53-1.82-1.45-1.82s-1.45.5-1.45,1.82.58,2.34,2.47,4c2.42,2.13,3.19,3.66,3.19,5.76,0,2.95-1.47,4.63-4.32,4.63s-4.32-1.68-4.32-4.63v-1.13h2.74v1.32c0,1.32.58,1.79,1.5,1.79s1.5-.47,1.5-1.79-.58-2.34-2.47-4c-2.42-2.13-3.18-3.66-3.18-5.76,0-2.95,1.45-4.63,4.26-4.63h0Z"/>
    <path class="cls-2" d="M136.36,49.14h2.9v18.42h-2.9v-18.42Z"/>
    <path class="cls-2" d="M148.52,57.3h4.05v5.84c0,2.95-1.47,4.63-4.32,4.63s-4.32-1.68-4.32-4.63v-9.58c0-2.95,1.47-4.63,4.32-4.63s4.32,1.68,4.32,4.63v1.79h-2.74v-1.97c0-1.32-.58-1.82-1.5-1.82s-1.5.5-1.5,1.82v9.95c0,1.32.58,1.79,1.5,1.79s1.5-.47,1.5-1.79v-3.4h-1.32v-2.63h.01Z"/>
    <path class="cls-2" d="M159.89,54.22h-.05v13.34h-2.61v-18.42h3.63l2.92,11.03h.05v-11.03h2.58v18.42h-2.97s-3.55-13.34-3.55-13.34Z"/>
  </g>
</svg>